<svg width="25" height="24" viewBox="0 0 25 24" xmlns="http://www.w3.org/2000/svg">
    <path d="M7.382 5.162c.264-.264.62-.166.796.011L9.595 6.59c.22.22.23.568.021.788-.24.253-.538.579-.698.812a7.929 7.929 0 0 0-.478.82.554.554 0 0 1-.502.298l-1.76-.02a8.56 8.56 0 0 0-.364 2.619c.01.83.135 1.694.437 2.63l1.76.028a.59.59 0 0 1 .51.312c.13.242.32.578.501.834.168.237.473.572.722.832a.562.562 0 0 1 0 .788l-1.377 1.377a.558.558 0 0 1-.796-.01 9.949 9.949 0 0 1-2.908-6.808c-.021-2.502.937-4.946 2.72-6.728zm5.025 4.553 2.283 2.22-2.283 2.22V12.49H9.553v-1.11h2.854V9.715zM18.663 9a1.5 1.5 0 1 0 0 3 1.5 1.5 0 0 0 0-3zm3 6h-6v-.5c0-.785 1.361-1.5 3-1.5s3 .715 3 1.5v.5z" fill="#212121" fill-rule="evenodd"/>
</svg>
