<svg width="24" height="24" viewBox="0 0 24 24" xmlns="http://www.w3.org/2000/svg" xmlns:xlink="http://www.w3.org/1999/xlink">
    <defs>
        <path d="M7.333 6.667a.667.667 0 0 0-.666.666V8c0 .368.298.667.666.667h1.334A.667.667 0 0 0 9.333 8v-.667a.667.667 0 0 0-.666-.666H7.333zm4 0a.667.667 0 0 0-.666.666V8c0 .368.298.667.666.667h1.334A.667.667 0 0 0 13.333 8v-.667a.667.667 0 0 0-.666-.666h-1.334zm4 0a.667.667 0 0 0-.666.666V8c0 .368.298.667.666.667h1.334A.667.667 0 0 0 17.333 8v-.667a.667.667 0 0 0-.666-.666h-1.334zm-8 3.333a.667.667 0 0 0-.666.667v.666c0 .368.298.667.666.667h1.334a.667.667 0 0 0 .666-.667v-.666A.667.667 0 0 0 8.667 10H7.333zm4 0a.667.667 0 0 0-.666.667v.666c0 .368.298.667.666.667h1.334a.667.667 0 0 0 .666-.667v-.666a.667.667 0 0 0-.666-.667h-1.334zm4 0a.667.667 0 0 0-.666.667v.666c0 .368.298.667.666.667h1.334a.667.667 0 0 0 .666-.667v-.666a.667.667 0 0 0-.666-.667h-1.334zm-8 3.333a.667.667 0 0 0-.666.667v.667c0 .368.298.666.666.666h1.334a.667.667 0 0 0 .666-.666V14a.667.667 0 0 0-.666-.667H7.333zm4 0a.667.667 0 0 0-.666.667v.667c0 .368.298.666.666.666h1.334a.667.667 0 0 0 .666-.666V14a.667.667 0 0 0-.666-.667h-1.334zm4 0a.667.667 0 0 0-.666.667v.667c0 .368.298.666.666.666h1.334a.667.667 0 0 0 .666-.666V14a.667.667 0 0 0-.666-.667h-1.334zm-4 3.334a.667.667 0 0 0-.666.666V18c0 .368.298.667.666.667h1.334a.667.667 0 0 0 .666-.667v-.667a.667.667 0 0 0-.666-.666h-1.334z" id="q0k2jdvfba"/>
    </defs>
    <g fill="none" fill-rule="evenodd">
        <mask id="zlaerbor7b" fill="#fff">
            <use xlink:href="#q0k2jdvfba"/>
        </mask>
        <g mask="url(#zlaerbor7b)" fill="#212121">
            <path d="M0 0h24v24H0z"/>
        </g>
    </g>
</svg>
