<svg xmlns="http://www.w3.org/2000/svg" height="20" viewBox="0 96 960 960" width="20"><path d="M480 672q-50 0-85-35t-35-85V312q0-50 35-85t85-35q50 0 85 35t35 85v240q0 50-35 85t-85 35Zm0-240Zm-36 480v-99q-98.8-13.105-163.4-87.052Q216 652 216 552h72q0 79.68 56.226 135.84t136 56.16Q560 744 616 687.84T672 552h72q0 100-64.6 173.948Q614.8 799.895 516 813v99h-72Zm36-312q20.4 0 34.2-13.8Q528 572.4 528 552V312q0-20.4-13.8-34.2Q500.4 264 480 264q-20.4 0-34.2 13.8Q432 291.6 432 312v240q0 20.4 13.8 34.2Q459.6 600 480 600Z"/></svg>