<svg xmlns="http://www.w3.org/2000/svg" height="20" viewBox="0 -960 960 960" width="20"><path d="M356-260h248v-32H356v32Zm0-144h248v-32H356v32Zm-67.668 268Q264-136 248-152.15t-16-40.465v-574.77q0-24.315 16.15-40.465Q264.3-824 288.615-824H596l132 132v499.385q0 24.315-16.162 40.465Q695.676-136 671.344-136H288.332ZM568-664v-128H288.615q-9.23 0-16.923 7.692Q264-776.615 264-767.385v574.77q0 9.23 7.692 16.923Q279.385-168 288.615-168h382.77q9.23 0 16.923-7.692Q696-183.385 696-192.615V-664H568ZM264-792v149-149 624-624Z"/></svg>