<svg xmlns="http://www.w3.org/2000/svg" height="20" viewBox="0 96 960 960" width="20"><path d="m701 695-53-53q11-21 17.33-43.403 6.33-22.402 6.33-46.597H744q0 38-11.18 74.382Q721.64 662.763 701 695ZM477 473Zm117.24 115L528 522V312q0-20.4-13.8-34.2Q500.4 264 480 264q-20.4 0-34.2 13.8Q432 291.6 432 312v114l-72-72.381V312q0-50 35-85t85-35q50 0 85 35t35 85v240q0 9-1.5 18t-4.26 18ZM444 912v-99q-99-12-163.5-86.5T216 552h72q0 79.68 56 135.84T480 744q34 0 64.5-13t56.5-35l52 52q-29.296 25.091-64.148 42.545Q554 808 516 813v99h-72Zm324 54L90 287l51-51 678 679-51 51Z"/></svg>